#!OML:ASF G:\JayActor3\Patient Classification 1\Patient 1\Session 5\male.ASF
:FULLY-SPECIFIED
:DEGREES
540
root 12.0893 14.5096 -5.41812 4.79052 86.8705 350.751
lowerback 32.635 -0.860683 -0.00115848
upperback 6.58901 -0.570417 -1.3812
thorax -9.52371 0.0158708 -1.29732
lowerneck -4.13835 0.239373 2.43218
upperneck -12.7782 0.687187 0.521175
head -3.39144 0.365594 -0.268452
rclavicle 9.14409e-015 1.55052e-014
rhumerus -21.3381 6.43529 -86.772
rradius 50.3467
rwrist -4.83471
rhand -21.5457 -8.92553
rfingers 7.12502
rthumb 4.84741 -38.8501
lclavicle 9.14409e-015 1.55052e-014
lhumerus -19.9056 -6.51176 81.9887
lradius 39.537
lwrist 23.0342
lhand -19.3748 11.3108
lfingers 7.12502
lthumb 6.94335 41.177
rfemur -64.027 -5.68793 18.6281
rtibia 109.674
rfoot -5.50421 -5.41493
rtoes -13.766
lfemur -57.1203 -1.79009 -25.2495
ltibia 70.9155
lfoot -25.1195 7.06263
ltoes 0.880395
541
root 11.9985 14.5162 -5.41808 5.56883 86.8464 351.455
lowerback 32.5493 -0.844583 -0.0384836
upperback 6.60181 -0.561629 -1.36842
thorax -9.47477 0.0201845 -1.26685
lowerneck -4.19264 0.253518 2.44776
upperneck -12.6355 0.69392 0.481266
head -3.33131 0.369045 -0.283322
rclavicle -9.54166e-015 -9.14409e-015
rhumerus -21.2793 6.39374 -86.687
rradius 50.3094
rwrist -4.78507
rhand -21.5753 -8.95197
rfingers 7.12502
rthumb 4.81882 -38.8772
lclavicle -9.54166e-015 -9.14409e-015
lhumerus -19.8468 -6.55273 82.0083
lradius 39.6781
lwrist 23.0647
lhand -19.4265 11.288
lfingers 7.12502
lthumb 6.89341 41.1557
rfemur -63.2421 -5.8902 18.456
rtibia 109.816
rfoot -4.27262 -4.71943
rtoes -13.913
lfemur -57.4781 -1.93959 -25.2045
ltibia 70.663
lfoot -24.713 7.18212
ltoes 1.18265
542
root 11.9075 14.5231 -5.41664 6.08474 86.8185 351.897
lowerback 32.4746 -0.826423 -0.072559
upperback 6.60924 -0.549146 -1.35212
thorax -9.43598 0.0259695 -1.23575
lowerneck -4.2262 0.267285 2.46931
upperneck -12.5328 0.702628 0.442506
head -3.28909 0.37323 -0.299108
rclavicle 1.74931e-014 1.23246e-014
rhumerus -21.2352 6.35694 -86.6078
rradius 50.2687
rwrist -4.74689
rhand -21.5879 -8.984
rfingers 7.12502
rthumb 4.80674 -38.9095
lclavicle 1.74931e-014 1.23246e-014
lhumerus -19.8028 -6.60194 82.0234
lradius 39.8308
lwrist 23.116
lhand -19.4676 11.2566
lfingers 7.12502
lthumb 6.85382 41.1256
rfemur -62.4611 -6.05471 18.3297
rtibia 109.866
rfoot -3.15118 -4.09547
rtoes -13.8487
lfemur -57.8325 -2.03889 -25.1457
ltibia 70.409
lfoot -24.3132 7.23911
ltoes 1.51177
543
root 11.8166 14.53 -5.41381 6.30659 86.7877 352.05
lowerback 32.4148 -0.80757 -0.10054
upperback 6.61353 -0.533476 -1.33248
thorax -9.4065 0.0330823 -1.20556
lowerneck -4.23265 0.279128 2.49247
upperneck -12.4783 0.712194 0.410282
head -3.2687 0.377601 -0.313388
rclavicle -4.37326e-015 -3.18055e-015
rhumerus -21.2072 6.32045 -86.5363
rradius 50.2301
rwrist -4.71907
rhand -21.5852 -9.00792
rfingers 7.12502
rthumb 4.80933 -38.9333
lclavicle -4.37326e-015 -3.18055e-015
lhumerus -19.7701 -6.66358 82.0334
lradius 39.9902
lwrist 23.1911
lhand -19.4942 11.2164
lfingers 7.12502
lthumb 6.82808 41.0863
rfemur -61.6753 -6.18595 18.2579
rtibia 109.824
rfoot -2.2103 -3.59542
rtoes -13.5653
lfemur -58.1777 -2.08841 -25.0739
ltibia 70.1533
lfoot -23.9021 7.26155
ltoes 1.76594
544
root 11.7257 14.5372 -5.40975 6.32237 86.7573 352.005
lowerback 32.3694 -0.790426 -0.124223
upperback 6.61624 -0.518121 -1.31002
thorax -9.38452 0.0400273 -1.17459
lowerneck -4.21033 0.286741 2.50894
upperneck -12.4682 0.719915 0.390837
head -3.26911 0.38091 -0.322692
rclavicle 1.70955e-014 4.41302e-014
rhumerus -21.1903 6.29252 -86.4721
rradius 50.19
rwrist -4.71013
rhand -21.5814 -9.0195
rfingers 7.12502
rthumb 4.81295 -38.9448
lclavicle 1.70955e-014 4.41302e-014
lhumerus -19.7477 -6.73155 82.0392
lradius 40.155
lwrist 23.2769
lhand -19.4994 11.1685
lfingers 7.12502
lthumb 6.82312 41.0385
rfemur -60.8796 -6.28949 18.2373
rtibia 109.693
rfoot -1.49169 -3.2621
rtoes -13.1118
lfemur -58.5109 -2.09528 -24.9943
ltibia 69.8954
lfoot -23.4919 7.23423
ltoes 2.0099
545
root 11.6349 14.5447 -5.40467 6.13542 86.7295 351.769
lowerback 32.3433 -0.776586 -0.137636
upperback 6.61631 -0.503402 -1.28698
thorax -9.37326 0.046567 -1.14832
lowerneck -4.16675 0.287637 2.5205
upperneck -12.4845 0.721316 0.383837
head -3.28271 0.380795 -0.327251
rclavicle 5.56597e-015 -1.90833e-014
rhumerus -21.1865 6.26655 -86.4161
rradius 50.1464
rwrist -4.7113
rhand -21.5695 -9.02956
rfingers 7.12502
rthumb 4.82451 -38.9546
lclavicle 5.56597e-015 -1.90833e-014
lhumerus -19.7334 -6.81492 82.0416
lradius 40.3155
lwrist 23.3732
lhand -19.4941 11.1282
lfingers 7.12502
lthumb 6.82824 40.9981
rfemur -60.0696 -6.37161 18.2668
rtibia 109.472
rfoot -0.995278 -3.12734
rtoes -12.5451
lfemur -58.8275 -2.06744 -24.9079
ltibia 69.6352
lfoot -23.079 7.17506
ltoes 2.22798
546
root 11.5442 14.552 -5.39891 5.80914 86.7052 351.4
lowerback 32.327 -0.768018 -0.140237
upperback 6.61427 -0.491822 -1.26394
thorax -9.36843 0.0514609 -1.12671
lowerneck -4.11547 0.284182 2.52565
upperneck -12.5108 0.718599 0.388579
head -3.30133 0.378493 -0.326919
rclavicle -2.22639e-014 -3.06128e-014
rhumerus -21.1918 6.23983 -86.3701
rradius 50.0931
rwrist -4.71173
rhand -21.5601 -9.03127
rfingers 7.12502
rthumb 4.83353 -38.9561
lclavicle -2.22639e-014 -3.06128e-014
lhumerus -19.7272 -6.90741 82.0398
lradius 40.4728
lwrist 23.4666
lhand -19.4702 11.1138
lfingers 7.12502
lthumb 6.85125 40.983
rfemur -59.256 -6.43542 18.339
rtibia 109.163
rfoot -0.691859 -3.19408
rtoes -11.9329
lfemur -59.1369 -2.01436 -24.8189
ltibia 69.3744
lfoot -22.6618 7.08976
ltoes 2.44222
547
root 11.4536 14.5591 -5.39281 5.41766 86.686 350.973
lowerback 32.319 -0.765969 -0.13158
upperback 6.61094 -0.484901 -1.24245
thorax -9.3686 0.0540319 -1.11109
lowerneck -4.06797 0.276824 2.52976
upperneck -12.5289 0.710434 0.396928
head -3.31644 0.373354 -0.325081
rclavicle 7.95139e-016 7.95139e-015
rhumerus -21.2017 6.21551 -86.3312
rradius 50.0289
rwrist -4.71068
rhand -21.5571 -9.03737
rfingers 7.12502
rthumb 4.83641 -38.9622
lclavicle 7.95139e-016 7.95139e-015
lhumerus -19.7172 -7.00013 82.0369
lradius 40.6082
lwrist 23.5456
lhand -19.4391 11.0961
lfingers 7.12502
lthumb 6.88127 40.9643
rfemur -58.4414 -6.4843 18.4432
rtibia 108.763
rfoot -0.541302 -3.43464
rtoes -11.3625
lfemur -59.439 -1.94831 -24.7311
ltibia 69.1138
lfoot -22.2431 6.98636
ltoes 2.66386
548
root 11.3629 14.5654 -5.38654 4.95724 86.6724 350.478
lowerback 32.3073 -0.770222 -0.107515
upperback 6.60763 -0.481227 -1.22359
thorax -9.36759 0.0547819 -1.10534
lowerneck -4.03648 0.266088 2.53203
upperneck -12.5281 0.697301 0.412505
head -3.32216 0.365636 -0.320319
rclavicle -1.19271e-015 1.55052e-014
rhumerus -21.2144 6.1827 -86.2998
rradius 49.9531
rwrist -4.6947
rhand -21.5473 -9.05863
rfingers 7.12502
rthumb 4.84587 -38.9832
lclavicle -1.19271e-015 1.55052e-014
lhumerus -19.7026 -7.09661 82.0326
lradius 40.7251
lwrist 23.6073
lhand -19.4092 11.1106
lfingers 7.12502
lthumb 6.91011 40.9778
rfemur -57.6393 -6.51773 18.575
rtibia 108.272
rfoot -0.49103 -3.79916
rtoes -10.7411
lfemur -59.7455 -1.88005 -24.6423
ltibia 68.857
lfoot -21.8205 6.87711
ltoes 2.8972
549
root 11.272 14.5707 -5.38022 4.50816 86.6598 349.989
lowerback 32.2855 -0.777562 -0.0753058
upperback 6.60412 -0.479195 -1.20629
thorax -9.36292 0.0545018 -1.10499
lowerneck -4.02329 0.25679 2.53704
upperneck -12.51 0.684368 0.421324
head -3.3184 0.358224 -0.318058
rclavicle 7.55382e-015 2.78299e-015
rhumerus -21.2254 6.14786 -86.2714
rradius 49.8605
rwrist -4.66104
rhand -21.5578 -9.07499
rfingers 7.12502
rthumb 4.83571 -38.9998
lclavicle 7.55382e-015 2.78299e-015
lhumerus -19.6783 -7.18397 82.0314
lradius 40.8175
lwrist 23.6486
lhand -19.3803 11.1429
lfingers 7.12502
lthumb 6.93803 41.0092
rfemur -56.8619 -6.52674 18.7243
rtibia 107.689
rfoot -0.485745 -4.22189
rtoes -9.99092
lfemur -60.0648 -1.81299 -24.5566
ltibia 68.6052
lfoot -21.3901 6.77579
ltoes 3.11964
550
root 11.1808 14.5748 -5.37376 4.12421 86.6486 349.556
lowerback 32.2469 -0.787467 -0.0390584
upperback 6.60135 -0.479575 -1.19088
thorax -9.35087 0.0528908 -1.1079
lowerneck -4.0267 0.24958 2.54458
upperneck -12.4807 0.672945 0.424056
head -3.30769 0.351794 -0.318107
rclavicle 8.34896e-015 1.55052e-014
rhumerus -21.2305 6.11063 -86.2461
rradius 49.7537
rwrist -4.61189
rhand -21.5742 -9.09656
rfingers 7.12502
rthumb 4.81992 -39.0217
lclavicle 8.34896e-015 1.55052e-014
lhumerus -19.6485 -7.25689 82.0316
lradius 40.8959
lwrist 23.6709
lhand -19.3586 11.1957
lfingers 7.12502
lthumb 6.95902 41.0613
rfemur -56.1162 -6.5087 18.8837
rtibia 107.01
rfoot -0.511708 -4.60574
rtoes -9.24644
lfemur -60.4022 -1.75485 -24.4727
ltibia 68.3589
lfoot -20.9624 6.67278
ltoes 3.37113
551
root 11.0893 14.5777 -5.36718 3.77488 86.6379 349.147
lowerback 31.9391 -0.801701 0.011109
upperback 7.03158 -0.480005 -1.13785
thorax -9.50982 0.0405583 -1.16223
lowerneck -4.04871 0.247215 2.55231
upperneck -12.4473 0.666972 0.41857
head -3.29205 0.348582 -0.320854
rclavicle -7.95139e-016 8.74653e-015
rhumerus -21.2282 6.07349 -86.2206
rradius 49.6362
rwrist -4.54136
rhand -21.5945 -9.11825
rfingers 7.12502
rthumb 4.80035 -39.0439
lclavicle -7.95139e-016 8.74653e-015
lhumerus -19.6162 -7.31337 82.0331
lradius 40.9671
lwrist 23.6809
lhand -19.3433 11.2774
lfingers 7.12502
lthumb 6.97374 41.1426
rfemur -55.3986 -6.45658 19.0497
rtibia 106.228
rfoot -0.551184 -4.8583
rtoes -8.58249
lfemur -60.756 -1.70962 -24.3871
ltibia 68.1156
lfoot -20.5229 6.59082
ltoes 3.58061
552
root 10.9973 14.58 -5.3602 3.64634 86.6314 348.953
lowerback 31.8766 -0.815719 0.0471862
upperback 7.02754 -0.48677 -1.12673
thorax -9.48532 0.0359225 -1.16752
lowerneck -4.07203 0.246794 2.55183
upperneck -12.4264 0.664642 0.415424
head -3.28054 0.347615 -0.321547
rclavicle -5.96354e-015 -1.07344e-014
rhumerus -21.2286 6.03343 -86.1985
rradius 49.5186
rwrist -4.44941
rhand -21.635 -9.13132
rfingers 7.12502
rthumb 4.76124 -39.0578
lclavicle -5.96354e-015 -1.07344e-014
lhumerus -19.5846 -7.35415 82.0339
lradius 41.0325
lwrist 23.6829
lhand -19.3238 11.3483
lfingers 7.12502
lthumb 6.99262 41.2128
rfemur -54.7019 -6.37287 19.2078
rtibia 105.336
rfoot -0.585905 -4.89683
rtoes -8.13253
lfemur -61.116 -1.6825 -24.3088
ltibia 67.8702
lfoot -20.0684 6.52135
ltoes 3.74416
553
root 10.905 14.5819 -5.35267 3.59881 86.6286 348.841
lowerback 31.822 -0.833419 0.0820117
upperback 7.02302 -0.49865 -1.11699
thorax -9.46515 0.0290032 -1.17175
lowerneck -4.09758 0.249739 2.54521
upperneck -12.4206 0.66739 0.408714
head -3.27377 0.349726 -0.322493
rclavicle -4.37326e-015 1.74931e-014
rhumerus -21.2292 5.99886 -86.179
rradius 49.4057
rwrist -4.34496
rhand -21.6695 -9.151
rfingers 7.12502
rthumb 4.72788 -39.0782
lclavicle -4.37326e-015 1.74931e-014
lhumerus -19.5599 -7.37993 82.0323
lradius 41.1007
lwrist 23.6875
lhand -19.3085 11.3955
lfingers 7.12502
lthumb 7.00738 41.2595
rfemur -54.0126 -6.2545 19.3684
rtibia 104.328
rfoot -0.579281 -4.67814
rtoes -7.88611
lfemur -61.4713 -1.67101 -24.2268
ltibia 67.6209
lfoot -19.6165 6.44838
ltoes 3.94621
